<svg version="1.1" xmlns="http://www.w3.org/2000/svg" xmlns:xlink="http://www.w3.org/1999/xlink" width="291.49169" height="119.58334" viewBox="869.25416,399.20833,291.49169,119.58334"><g fill="#000000" fill-rule="nonzero" stroke="none" stroke-width="1" stroke-linecap="butt" stroke-linejoin="miter" stroke-miterlimit="10" stroke-dasharray="" stroke-dashoffset="0" font-family="none" font-weight="none" font-size="none" text-anchor="none" style="mix-blend-mode: normal"><path d="M896.67083,434.675v7.35v0c-0.66111,0.15556 -1.40972,0.29167 -2.24583,0.40833v0v0c-0.83611,0.11667 -1.72083,0.22361 -2.65417,0.32083v0v0c-0.93333,0.09722 -1.87639,0.16528 -2.82917,0.20417v0v0c-0.95278,0.03889 -1.85694,0.05833 -2.7125,0.05833v0v0c-3.73333,0 -6.71806,-0.34028 -8.95417,-1.02083v0v0c-2.23611,-0.68056 -3.94722,-1.81806 -5.13333,-3.4125v0v0c-1.18611,-1.59444 -1.96389,-3.70417 -2.33333,-6.32917v0v0c-0.36944,-2.625 -0.55417,-5.88194 -0.55417,-9.77083v0v0c0,-3.81111 0.18472,-7.01944 0.55417,-9.625v0v0c0.36944,-2.60556 1.14722,-4.71528 2.33333,-6.32917v0v0c1.18611,-1.61389 2.89722,-2.78056 5.13333,-3.5v0v0c2.23611,-0.71944 5.22083,-1.07917 8.95417,-1.07917v0v0c0.85556,0 1.75,0.02917 2.68333,0.0875v0v0c0.93333,0.05833 1.85694,0.13611 2.77083,0.23333v0v0c0.91389,0.09722 1.77917,0.21389 2.59583,0.35v0v0c0.81667,0.13611 1.53611,0.28194 2.15833,0.4375v0v7.23333v0c-1.63333,-0.19444 -3.15,-0.34028 -4.55,-0.4375v0v0c-1.4,-0.09722 -2.48889,-0.14583 -3.26667,-0.14583v0v0c-2.33333,0 -4.14167,0.11667 -5.425,0.35v0v0c-1.28333,0.23333 -2.23611,0.77778 -2.85833,1.63333v0v0c-0.62222,0.85556 -1.00139,2.12917 -1.1375,3.82083v0v0c-0.13611,1.69167 -0.20417,4.01528 -0.20417,6.97083v0v0c0,2.95556 0.06806,5.27917 0.20417,6.97083v0v0c0.13611,1.69167 0.51528,2.96528 1.1375,3.82083v0v0c0.62222,0.85556 1.575,1.4 2.85833,1.63333v0v0c1.28333,0.23333 3.09167,0.35 5.425,0.35v0v0c1.24444,0 2.61528,-0.04861 4.1125,-0.14583v0v0c1.49722,-0.09722 2.80972,-0.24306 3.9375,-0.4375zM915.92083,443.01667v0v0c-3.30556,0 -5.89167,-0.24306 -7.75833,-0.72917v0v0c-1.86667,-0.48611 -3.25694,-1.3125 -4.17083,-2.47917v0v0c-0.91389,-1.16667 -1.47778,-2.74167 -1.69167,-4.725v0v0c-0.21389,-1.98333 -0.32083,-4.47222 -0.32083,-7.46667v0v0c0,-2.99444 0.10694,-5.47361 0.32083,-7.4375v0v0c0.21389,-1.96389 0.77778,-3.52917 1.69167,-4.69583v0v0c0.91389,-1.16667 2.30417,-1.98333 4.17083,-2.45v0v0c1.86667,-0.46667 4.45278,-0.7 7.75833,-0.7v0v0c3.30556,0 5.89167,0.23333 7.75833,0.7v0v0c1.86667,0.46667 3.26667,1.28333 4.2,2.45v0v0c0.93333,1.16667 1.50694,2.73194 1.72083,4.69583v0v0c0.21389,1.96389 0.32083,4.44306 0.32083,7.4375v0v0c0,2.99444 -0.10694,5.48333 -0.32083,7.46667v0v0c-0.21389,1.98333 -0.7875,3.55833 -1.72083,4.725v0v0c-0.93333,1.16667 -2.33333,1.99306 -4.2,2.47917v0v0c-1.86667,0.48611 -4.45278,0.72917 -7.75833,0.72917M915.92083,436.19167v0v0c1.28333,0 2.26528,-0.0875 2.94583,-0.2625v0v0c0.68056,-0.175 1.18611,-0.55417 1.51667,-1.1375v0v0c0.33056,-0.58333 0.525,-1.43889 0.58333,-2.56667v0v0c0.05833,-1.12778 0.0875,-2.66389 0.0875,-4.60833v0v0c0,-1.94444 -0.02917,-3.47083 -0.0875,-4.57917v0v0c-0.05833,-1.10833 -0.25278,-1.95417 -0.58333,-2.5375v0v0c-0.33056,-0.58333 -0.83611,-0.95278 -1.51667,-1.10833v0v0c-0.68056,-0.15556 -1.6625,-0.23333 -2.94583,-0.23333v0v0c-1.24444,0 -2.20694,0.07778 -2.8875,0.23333v0v0c-0.68056,0.15556 -1.17639,0.525 -1.4875,1.10833v0v0c-0.31111,0.58333 -0.49583,1.42917 -0.55417,2.5375v0v0c-0.05833,1.10833 -0.0875,2.63472 -0.0875,4.57917v0v0c0,1.94444 0.02917,3.48056 0.0875,4.60833v0v0c0.05833,1.12778 0.24306,1.98333 0.55417,2.56667v0v0c0.31111,0.58333 0.80694,0.9625 1.4875,1.1375v0v0c0.68056,0.175 1.64306,0.2625 2.8875,0.2625zM947.77083,443.01667v0v0c-1.86667,0 -3.89861,-0.07778 -6.09583,-0.23333v0v0c-2.19722,-0.15556 -4.1125,-0.35 -5.74583,-0.58333v0v-6.35833v0c0.58333,0.03889 1.28333,0.0875 2.1,0.14583v0v0c0.81667,0.05833 1.65278,0.11667 2.50833,0.175v0v0c0.85556,0.05833 1.70139,0.09722 2.5375,0.11667v0v0c0.83611,0.01944 1.60417,0.02917 2.30417,0.02917v0v0c1.36111,0 2.43056,-0.03889 3.20833,-0.11667v0v0c0.77778,-0.07778 1.35139,-0.21389 1.72083,-0.40833v0v0c0.36944,-0.19444 0.60278,-0.45694 0.7,-0.7875v0v0c0.09722,-0.33056 0.14583,-0.74861 0.14583,-1.25417v0v0c0,-0.50556 -0.02917,-0.89444 -0.0875,-1.16667v0v0c-0.05833,-0.27222 -0.19444,-0.49583 -0.40833,-0.67083v0v0c-0.21389,-0.175 -0.525,-0.30139 -0.93333,-0.37917v0v0c-0.40833,-0.07778 -0.9625,-0.15556 -1.6625,-0.23333v0l-6.94167,-0.875v0c-1.28333,-0.19444 -2.33333,-0.525 -3.15,-0.99167v0v0c-0.81667,-0.46667 -1.43889,-1.07917 -1.86667,-1.8375v0v0c-0.42778,-0.75833 -0.71944,-1.6625 -0.875,-2.7125v0v0c-0.15556,-1.05 -0.23333,-2.23611 -0.23333,-3.55833v0v0c0,-2.02222 0.31111,-3.62639 0.93333,-4.8125v0v0c0.62222,-1.18611 1.47778,-2.09028 2.56667,-2.7125v0v0c1.08889,-0.62222 2.38194,-1.02083 3.87917,-1.19583v0v0c1.49722,-0.175 3.14028,-0.2625 4.92917,-0.2625v0v0c1.86667,0 3.77222,0.0875 5.71667,0.2625v0v0c1.94444,0.175 3.53889,0.37917 4.78333,0.6125v0v6.35833v0c-1.47778,-0.19444 -3.02361,-0.33056 -4.6375,-0.40833v0v0c-1.61389,-0.07778 -2.98472,-0.11667 -4.1125,-0.11667v0v0c-1.16667,0 -2.11944,0.01944 -2.85833,0.05833v0v0c-0.73889,0.03889 -1.32222,0.13611 -1.75,0.29167v0v0c-0.42778,0.15556 -0.72917,0.39861 -0.90417,0.72917v0v0c-0.175,0.33056 -0.2625,0.76806 -0.2625,1.3125v0v0c0,0.46667 0.02917,0.83611 0.0875,1.10833v0v0c0.05833,0.27222 0.175,0.49583 0.35,0.67083v0v0c0.175,0.175 0.44722,0.30139 0.81667,0.37917v0v0c0.36944,0.07778 0.86528,0.15556 1.4875,0.23333v0l7.175,0.875v0c1.01111,0.11667 1.89583,0.31111 2.65417,0.58333v0v0c0.75833,0.27222 1.40972,0.71944 1.95417,1.34167v0v0c0.54444,0.62222 0.95278,1.47778 1.225,2.56667v0v0c0.27222,1.08889 0.40833,2.54722 0.40833,4.375v0v0c0,2.1 -0.28194,3.78194 -0.84583,5.04583v0v0c-0.56389,1.26389 -1.36111,2.21667 -2.39167,2.85833v0v0c-1.03056,0.64167 -2.25556,1.05972 -3.675,1.25417v0v0c-1.41944,0.19444 -3.00417,0.29167 -4.75417,0.29167zM1008.72917,442.55h-8.86667v-15.75v0c0,-1.67222 -0.03889,-2.975 -0.11667,-3.90833v0v0c-0.07778,-0.93333 -0.25278,-1.63333 -0.525,-2.1v0v0c-0.27222,-0.46667 -0.67083,-0.75833 -1.19583,-0.875v0v0c-0.525,-0.11667 -1.23472,-0.175 -2.12917,-0.175v0v0c-0.97222,0 -1.75,0.11667 -2.33333,0.35v0v0c-0.58333,0.23333 -1.02083,0.63194 -1.3125,1.19583v0v0c-0.29167,0.56389 -0.47639,1.3125 -0.55417,2.24583v0v0c-0.07778,0.93333 -0.11667,2.11944 -0.11667,3.55833v0v15.45833h-8.86667v-15.75v0c0,-1.67222 -0.03889,-2.975 -0.11667,-3.90833v0v0c-0.07778,-0.93333 -0.25278,-1.63333 -0.525,-2.1v0v0c-0.27222,-0.46667 -0.68056,-0.75833 -1.225,-0.875v0v0c-0.54444,-0.11667 -1.26389,-0.175 -2.15833,-0.175v0v0c-0.97222,0 -1.74028,0.11667 -2.30417,0.35v0v0c-0.56389,0.23333 -0.99167,0.63194 -1.28333,1.19583v0v0c-0.29167,0.56389 -0.48611,1.32222 -0.58333,2.275v0v0c-0.09722,0.95278 -0.14583,2.12917 -0.14583,3.52917v0v15.45833h-8.86667v-29.75h8.4l0.23333,3.61667h0.46667v0c0.81667,-1.47778 1.94444,-2.52778 3.38333,-3.15v0v0c1.43889,-0.62222 3.11111,-0.93333 5.01667,-0.93333v0v0c2.33333,0 4.10278,0.33056 5.30833,0.99167v0v0c1.20556,0.66111 2.08056,1.69167 2.625,3.09167v0h0.525v0c0.81667,-1.47778 1.95417,-2.52778 3.4125,-3.15v0v0c1.45833,-0.62222 3.17917,-0.93333 5.1625,-0.93333v0v0c1.86667,0 3.37361,0.25278 4.52083,0.75833v0v0c1.14722,0.50556 2.02222,1.24444 2.625,2.21667v0v0c0.60278,0.97222 1.01111,2.1875 1.225,3.64583v0v0c0.21389,1.45833 0.32083,3.12083 0.32083,4.9875v0zM1029.20417,443.01667v0v0c-3.30556,0 -5.89167,-0.24306 -7.75833,-0.72917v0v0c-1.86667,-0.48611 -3.25694,-1.3125 -4.17083,-2.47917v0v0c-0.91389,-1.16667 -1.47778,-2.74167 -1.69167,-4.725v0v0c-0.21389,-1.98333 -0.32083,-4.47222 -0.32083,-7.46667v0v0c0,-2.99444 0.10694,-5.47361 0.32083,-7.4375v0v0c0.21389,-1.96389 0.77778,-3.52917 1.69167,-4.69583v0v0c0.91389,-1.16667 2.30417,-1.98333 4.17083,-2.45v0v0c1.86667,-0.46667 4.45278,-0.7 7.75833,-0.7v0v0c3.30556,0 5.89167,0.23333 7.75833,0.7v0v0c1.86667,0.46667 3.26667,1.28333 4.2,2.45v0v0c0.93333,1.16667 1.50694,2.73194 1.72083,4.69583v0v0c0.21389,1.96389 0.32083,4.44306 0.32083,7.4375v0v0c0,2.99444 -0.10694,5.48333 -0.32083,7.46667v0v0c-0.21389,1.98333 -0.7875,3.55833 -1.72083,4.725v0v0c-0.93333,1.16667 -2.33333,1.99306 -4.2,2.47917v0v0c-1.86667,0.48611 -4.45278,0.72917 -7.75833,0.72917M1029.20417,436.19167v0v0c1.28333,0 2.26528,-0.0875 2.94583,-0.2625v0v0c0.68056,-0.175 1.18611,-0.55417 1.51667,-1.1375v0v0c0.33056,-0.58333 0.525,-1.43889 0.58333,-2.56667v0v0c0.05833,-1.12778 0.0875,-2.66389 0.0875,-4.60833v0v0c0,-1.94444 -0.02917,-3.47083 -0.0875,-4.57917v0v0c-0.05833,-1.10833 -0.25278,-1.95417 -0.58333,-2.5375v0v0c-0.33056,-0.58333 -0.83611,-0.95278 -1.51667,-1.10833v0v0c-0.68056,-0.15556 -1.6625,-0.23333 -2.94583,-0.23333v0v0c-1.24444,0 -2.20694,0.07778 -2.8875,0.23333v0v0c-0.68056,0.15556 -1.17639,0.525 -1.4875,1.10833v0v0c-0.31111,0.58333 -0.49583,1.42917 -0.55417,2.5375v0v0c-0.05833,1.10833 -0.0875,2.63472 -0.0875,4.57917v0v0c0,1.94444 0.02917,3.48056 0.0875,4.60833v0v0c0.05833,1.12778 0.24306,1.98333 0.55417,2.56667v0v0c0.31111,0.58333 0.80694,0.9625 1.4875,1.1375v0v0c0.68056,0.175 1.64306,0.2625 2.8875,0.2625zM1058.6625,442.55h-8.98333v-43.34167h8.98333zM1079.07917,443.01667v0v0c-3.30556,0 -5.89167,-0.24306 -7.75833,-0.72917v0v0c-1.86667,-0.48611 -3.25694,-1.3125 -4.17083,-2.47917v0v0c-0.91389,-1.16667 -1.47778,-2.74167 -1.69167,-4.725v0v0c-0.21389,-1.98333 -0.32083,-4.47222 -0.32083,-7.46667v0v0c0,-2.99444 0.10694,-5.47361 0.32083,-7.4375v0v0c0.21389,-1.96389 0.77778,-3.52917 1.69167,-4.69583v0v0c0.91389,-1.16667 2.30417,-1.98333 4.17083,-2.45v0v0c1.86667,-0.46667 4.45278,-0.7 7.75833,-0.7v0v0c3.30556,0 5.89167,0.23333 7.75833,0.7v0v0c1.86667,0.46667 3.26667,1.28333 4.2,2.45v0v0c0.93333,1.16667 1.50694,2.73194 1.72083,4.69583v0v0c0.21389,1.96389 0.32083,4.44306 0.32083,7.4375v0v0c0,2.99444 -0.10694,5.48333 -0.32083,7.46667v0v0c-0.21389,1.98333 -0.7875,3.55833 -1.72083,4.725v0v0c-0.93333,1.16667 -2.33333,1.99306 -4.2,2.47917v0v0c-1.86667,0.48611 -4.45278,0.72917 -7.75833,0.72917M1079.07917,436.19167v0v0c1.28333,0 2.26528,-0.0875 2.94583,-0.2625v0v0c0.68056,-0.175 1.18611,-0.55417 1.51667,-1.1375v0v0c0.33056,-0.58333 0.525,-1.43889 0.58333,-2.56667v0v0c0.05833,-1.12778 0.0875,-2.66389 0.0875,-4.60833v0v0c0,-1.94444 -0.02917,-3.47083 -0.0875,-4.57917v0v0c-0.05833,-1.10833 -0.25278,-1.95417 -0.58333,-2.5375v0v0c-0.33056,-0.58333 -0.83611,-0.95278 -1.51667,-1.10833v0v0c-0.68056,-0.15556 -1.6625,-0.23333 -2.94583,-0.23333v0v0c-1.24444,0 -2.20694,0.07778 -2.8875,0.23333v0v0c-0.68056,0.15556 -1.17639,0.525 -1.4875,1.10833v0v0c-0.31111,0.58333 -0.49583,1.42917 -0.55417,2.5375v0v0c-0.05833,1.10833 -0.0875,2.63472 -0.0875,4.57917v0v0c0,1.94444 0.02917,3.48056 0.0875,4.60833v0v0c0.05833,1.12778 0.24306,1.98333 0.55417,2.56667v0v0c0.31111,0.58333 0.80694,0.9625 1.4875,1.1375v0v0c0.68056,0.175 1.64306,0.2625 2.8875,0.2625zM1111.3375,454.56667v0v0c-0.93333,0 -1.89583,-0.01944 -2.8875,-0.05833v0v0c-0.99167,-0.03889 -1.95417,-0.0875 -2.8875,-0.14583v0v0c-0.93333,-0.05833 -1.79861,-0.12639 -2.59583,-0.20417v0v0c-0.79722,-0.07778 -1.4875,-0.175 -2.07083,-0.29167v0v-6.3v0c1.20556,0.07778 2.55694,0.12639 4.05417,0.14583v0v0c1.49722,0.01944 2.8875,0.02917 4.17083,0.02917v0v0c1.94444,0 3.46111,-0.07778 4.55,-0.23333v0v0c1.08889,-0.15556 1.90556,-0.47639 2.45,-0.9625v0v0c0.54444,-0.48611 0.875,-1.19583 0.99167,-2.12917v0v0c0.11667,-0.93333 0.175,-2.15833 0.175,-3.675v0v-1.925h-0.40833v0c-0.89444,1.47778 -2.06111,2.45972 -3.5,2.94583v0v0c-1.43889,0.48611 -3.05278,0.72917 -4.84167,0.72917v0v0c-1.78889,0 -3.31528,-0.23333 -4.57917,-0.7v0v0c-1.26389,-0.46667 -2.29444,-1.27361 -3.09167,-2.42083v0v0c-0.79722,-1.14722 -1.38056,-2.68333 -1.75,-4.60833v0v0c-0.36944,-1.925 -0.55417,-4.34583 -0.55417,-7.2625v0v0c0,-2.95556 0.18472,-5.40556 0.55417,-7.35v0v0c0.36944,-1.94444 0.95278,-3.5 1.75,-4.66667v0v0c0.79722,-1.16667 1.82778,-1.98333 3.09167,-2.45v0v0c1.26389,-0.46667 2.79028,-0.7 4.57917,-0.7v0v0c0.81667,0 1.63333,0.05833 2.45,0.175v0v0c0.81667,0.11667 1.60417,0.32083 2.3625,0.6125v0v0c0.75833,0.29167 1.45833,0.7 2.1,1.225v0v0c0.64167,0.525 1.17639,1.21528 1.60417,2.07083v0h0.525l0.23333,-3.61667h8.34167v26.30833v0c0,2.64444 -0.12639,4.93889 -0.37917,6.88333v0v0c-0.25278,1.94444 -0.875,3.54861 -1.86667,4.8125v0v0c-0.99167,1.26389 -2.46944,2.20694 -4.43333,2.82917v0v0c-1.96389,0.62222 -4.67639,0.93333 -8.1375,0.93333M1112.3875,435.2v0v0c1.16667,0 2.07083,-0.13611 2.7125,-0.40833v0v0c0.64167,-0.27222 1.11806,-0.73889 1.42917,-1.4v0v0c0.35,-0.66111 0.56389,-1.46806 0.64167,-2.42083v0v0c0.07778,-0.95278 0.11667,-2.10972 0.11667,-3.47083v0v0c0,-1.36111 -0.03889,-2.51806 -0.11667,-3.47083v0v0c-0.07778,-0.95278 -0.27222,-1.75972 -0.58333,-2.42083v0v0c-0.31111,-0.7 -0.79722,-1.19583 -1.45833,-1.4875v0v0c-0.66111,-0.29167 -1.575,-0.4375 -2.74167,-0.4375v0v0c-1.12778,0 -2.0125,0.06806 -2.65417,0.20417v0v0c-0.64167,0.13611 -1.12778,0.46667 -1.45833,0.99167v0v0c-0.33056,0.525 -0.54444,1.3125 -0.64167,2.3625v0v0c-0.09722,1.05 -0.14583,2.46944 -0.14583,4.25833v0v0c0,1.75 0.04861,3.14028 0.14583,4.17083v0v0c0.09722,1.03056 0.31111,1.80833 0.64167,2.33333v0v0c0.33056,0.525 0.81667,0.85556 1.45833,0.99167v0v0c0.64167,0.13611 1.52639,0.20417 2.65417,0.20417zM1146.1625,454.56667v0v0c-0.89444,0 -1.81806,-0.01944 -2.77083,-0.05833v0v0c-0.95278,-0.03889 -1.88611,-0.0875 -2.8,-0.14583v0v0c-0.91389,-0.05833 -1.77917,-0.12639 -2.59583,-0.20417v0v0c-0.81667,-0.07778 -1.53611,-0.175 -2.15833,-0.29167v0v-6.24167v0c1.90556,0.03889 3.49028,0.06806 4.75417,0.0875v0v0c1.26389,0.01944 2.40139,0.02917 3.4125,0.02917v0v0c1.90556,0 3.38333,-0.07778 4.43333,-0.23333v0v0c1.05,-0.15556 1.82778,-0.47639 2.33333,-0.9625v0v0c0.50556,-0.48611 0.81667,-1.17639 0.93333,-2.07083v0v0c0.11667,-0.89444 0.175,-2.08056 0.175,-3.55833v0v-2.275h-0.46667v0c-0.81667,1.36111 -1.93472,2.34306 -3.35417,2.94583v0v0c-1.41944,0.60278 -3.15972,0.90417 -5.22083,0.90417v0v0c-1.98333,0 -3.57778,-0.24306 -4.78333,-0.72917v0v0c-1.20556,-0.48611 -2.12917,-1.21528 -2.77083,-2.1875v0v0c-0.64167,-0.97222 -1.06944,-2.17778 -1.28333,-3.61667v0v0c-0.21389,-1.43889 -0.32083,-3.09167 -0.32083,-4.95833v0v-18.2h8.86667v15.28333v0c0,1.67222 0.04861,2.98472 0.14583,3.9375v0v0c0.09722,0.95278 0.30139,1.6625 0.6125,2.12917v0v0c0.31111,0.46667 0.75833,0.74861 1.34167,0.84583v0v0c0.58333,0.09722 1.38056,0.14583 2.39167,0.14583v0v0c1.08889,0 1.95417,-0.11667 2.59583,-0.35v0v0c0.64167,-0.23333 1.12778,-0.63194 1.45833,-1.19583v0v0c0.33056,-0.56389 0.54444,-1.3125 0.64167,-2.24583v0v0c0.09722,-0.93333 0.14583,-2.1 0.14583,-3.5v0v-15.05h8.86667v26.36667v0c0,2.64444 -0.12639,4.93889 -0.37917,6.88333v0v0c-0.25278,1.94444 -0.86528,3.54861 -1.8375,4.8125v0v0c-0.97222,1.26389 -2.43056,2.19722 -4.375,2.8v0v0c-1.94444,0.60278 -4.60833,0.90417 -7.99167,0.90417zM927.9375,482.33333h-9.1v-7.35h9.1v7.35M927.87917,518.325h-8.98333v-29.75h8.98333zM962.4125,518.325h-8.86667v-15.75v0c0,-1.67222 -0.04861,-2.975 -0.14583,-3.90833v0v0c-0.09722,-0.93333 -0.30139,-1.63333 -0.6125,-2.1v0v0c-0.31111,-0.46667 -0.75833,-0.75833 -1.34167,-0.875v0v0c-0.58333,-0.11667 -1.38056,-0.175 -2.39167,-0.175v0v0c-1.08889,0 -1.95417,0.11667 -2.59583,0.35v0v0c-0.64167,0.23333 -1.12778,0.64167 -1.45833,1.225v0v0c-0.33056,0.58333 -0.54444,1.34167 -0.64167,2.275v0v0c-0.09722,0.93333 -0.14583,2.1 -0.14583,3.5v0v15.45833h-8.86667v-29.75h8.4l0.23333,3.61667h0.525v0c0.81667,-1.47778 1.96389,-2.52778 3.44167,-3.15v0v0c1.47778,-0.62222 3.24722,-0.93333 5.30833,-0.93333v0v0c1.98333,0 3.57778,0.25278 4.78333,0.75833v0v0c1.20556,0.50556 2.12917,1.24444 2.77083,2.21667v0v0c0.64167,0.97222 1.06944,2.1875 1.28333,3.64583v0v0c0.21389,1.45833 0.32083,3.12083 0.32083,4.9875v0zM1011.47083,510.45v7.35v0c-0.66111,0.15556 -1.40972,0.29167 -2.24583,0.40833v0v0c-0.83611,0.11667 -1.72083,0.22361 -2.65417,0.32083v0v0c-0.93333,0.09722 -1.87639,0.16528 -2.82917,0.20417v0v0c-0.95278,0.03889 -1.85694,0.05833 -2.7125,0.05833v0v0c-3.73333,0 -6.71806,-0.34028 -8.95417,-1.02083v0v0c-2.23611,-0.68056 -3.94722,-1.81806 -5.13333,-3.4125v0v0c-1.18611,-1.59444 -1.96389,-3.70417 -2.33333,-6.32917v0v0c-0.36944,-2.625 -0.55417,-5.88194 -0.55417,-9.77083v0v0c0,-3.81111 0.18472,-7.01944 0.55417,-9.625v0v0c0.36944,-2.60556 1.14722,-4.71528 2.33333,-6.32917v0v0c1.18611,-1.61389 2.89722,-2.78056 5.13333,-3.5v0v0c2.23611,-0.71944 5.22083,-1.07917 8.95417,-1.07917v0v0c0.85556,0 1.75,0.02917 2.68333,0.0875v0v0c0.93333,0.05833 1.85694,0.13611 2.77083,0.23333v0v0c0.91389,0.09722 1.77917,0.21389 2.59583,0.35v0v0c0.81667,0.13611 1.53611,0.28194 2.15833,0.4375v0v7.23333v0c-1.63333,-0.19444 -3.15,-0.34028 -4.55,-0.4375v0v0c-1.4,-0.09722 -2.48889,-0.14583 -3.26667,-0.14583v0v0c-2.33333,0 -4.14167,0.11667 -5.425,0.35v0v0c-1.28333,0.23333 -2.23611,0.77778 -2.85833,1.63333v0v0c-0.62222,0.85556 -1.00139,2.12917 -1.1375,3.82083v0v0c-0.13611,1.69167 -0.20417,4.01528 -0.20417,6.97083v0v0c0,2.95556 0.06806,5.27917 0.20417,6.97083v0v0c0.13611,1.69167 0.51528,2.96528 1.1375,3.82083v0v0c0.62222,0.85556 1.575,1.4 2.85833,1.63333v0v0c1.28333,0.23333 3.09167,0.35 5.425,0.35v0v0c1.24444,0 2.61528,-0.04861 4.1125,-0.14583v0v0c1.49722,-0.09722 2.80972,-0.24306 3.9375,-0.4375zM1044.8375,518.325h-8.86667v-15.75v0c0,-1.67222 -0.04861,-2.975 -0.14583,-3.90833v0v0c-0.09722,-0.93333 -0.30139,-1.63333 -0.6125,-2.1v0v0c-0.31111,-0.46667 -0.75833,-0.75833 -1.34167,-0.875v0v0c-0.58333,-0.11667 -1.38056,-0.175 -2.39167,-0.175v0v0c-1.08889,0 -1.95417,0.11667 -2.59583,0.35v0v0c-0.64167,0.23333 -1.12778,0.64167 -1.45833,1.225v0v0c-0.33056,0.58333 -0.54444,1.34167 -0.64167,2.275v0v0c-0.09722,0.93333 -0.14583,2.1 -0.14583,3.5v0v15.45833h-8.86667v-43.34167h8.86667v17.09167h0.525v0c0.85556,-1.47778 1.99306,-2.49861 3.4125,-3.0625v0v0c1.41944,-0.56389 3.10139,-0.84583 5.04583,-0.84583v0v0c2.02222,0 3.63611,0.25278 4.84167,0.75833v0v0c1.20556,0.50556 2.12917,1.24444 2.77083,2.21667v0v0c0.64167,0.97222 1.06944,2.17778 1.28333,3.61667v0v0c0.21389,1.43889 0.32083,3.09167 0.32083,4.95833v0zM1061.34583,482.33333h-9.1v-7.35h9.1v7.35M1061.2875,518.325h-8.98333v-29.75h8.98333zM1077.7375,518.325h-8.98333v-43.34167h8.98333zM1098.9125,518.79167v0v0c-3.42222,0 -6.11528,-0.27222 -8.07917,-0.81667v0v0c-1.96389,-0.54444 -3.43194,-1.42917 -4.40417,-2.65417v0v0c-0.97222,-1.225 -1.58472,-2.80972 -1.8375,-4.75417v0v0c-0.25278,-1.94444 -0.37917,-4.29722 -0.37917,-7.05833v0v0c0,-2.68333 0.12639,-4.99722 0.37917,-6.94167v0v0c0.25278,-1.94444 0.84583,-3.53889 1.77917,-4.78333v0v0c0.93333,-1.24444 2.32361,-2.16806 4.17083,-2.77083v0v0c1.84722,-0.60278 4.36528,-0.90417 7.55417,-0.90417v0v0c3.18889,0 5.65833,0.29167 7.40833,0.875v0v0c1.75,0.58333 3.04306,1.4875 3.87917,2.7125v0v0c0.83611,1.225 1.34167,2.80972 1.51667,4.75417v0v0c0.175,1.94444 0.2625,4.29722 0.2625,7.05833v0v2.275h-18.14167v0c0,1.4 0.05833,2.50833 0.175,3.325v0v0c0.11667,0.81667 0.4375,1.43889 0.9625,1.86667v0v0c0.525,0.42778 1.32222,0.70972 2.39167,0.84583v0v0c1.06944,0.13611 2.55694,0.20417 4.4625,0.20417v0v0c1.16667,0 2.58611,-0.04861 4.25833,-0.14583v0v0c1.67222,-0.09722 3.24722,-0.22361 4.725,-0.37917v0v6.3v0c-0.62222,0.15556 -1.37083,0.29167 -2.24583,0.40833v0v0c-0.875,0.11667 -1.80833,0.22361 -2.8,0.32083v0v0c-0.99167,0.09722 -2.00278,0.16528 -3.03333,0.20417v0v0c-1.03056,0.03889 -2.03194,0.05833 -3.00417,0.05833M1093.02083,501h9.74167v0c0,-1.47778 -0.06806,-2.63472 -0.20417,-3.47083v0v0c-0.13611,-0.83611 -0.37917,-1.47778 -0.72917,-1.925v0v0c-0.35,-0.44722 -0.83611,-0.72917 -1.45833,-0.84583v0v0c-0.62222,-0.11667 -1.4,-0.175 -2.33333,-0.175v0v0c-1.08889,0 -1.96389,0.07778 -2.625,0.23333v0v0c-0.66111,0.15556 -1.16667,0.45694 -1.51667,0.90417v0v0c-0.35,0.44722 -0.58333,1.08889 -0.7,1.925v0v0c-0.11667,0.83611 -0.175,1.95417 -0.175,3.35417z" id="CompoundPath 1"/></g></svg>